<?xml version="1.0" encoding="UTF-8" standalone="no"?>
<svg width="27px" height="35px" viewBox="0 0 27 35" version="1.1" xmlns="http://www.w3.org/2000/svg" xmlns:xlink="http://www.w3.org/1999/xlink" xmlns:sketch="http://www.bohemiancoding.com/sketch/ns">
    <!-- Generator: Sketch 3.3.1 (12005) - http://www.bohemiancoding.com/sketch -->
    <title>Slice 1</title>
    <desc>Created with Sketch.</desc>
    <defs></defs>
    <g id="Page-1" stroke="none" stroke-width="1" fill="none" fill-rule="evenodd" sketch:type="MSPage">
        <g id="htmlacademy" sketch:type="MSLayerGroup" fill="#D12755">
            <path d="M13.62,0.017 L13.472,0 L0,1.412 L0,26.073 L13.472,34.09 L26.902,26.1 L26.944,26.074 L26.944,1.412 L13.62,0.017 L13.62,0.017 Z M25.019,12.127 L13.495,5.334 L13.494,5.23 L13.407,5.28 L13.319,5.224 L13.319,5.333 L1.925,12.118 L1.925,3.147 L13.472,1.935 L25.019,3.147 L25.019,12.127 L25.019,12.127 Z M13.405,6.787 L24.923,13.5 L20.444,16.14 L13.351,11.919 L13.338,13.334 L19.242,16.847 L18.382,17.354 L13.351,14.362 L13.338,15.777 L17.165,18.052 L16.383,18.575 L13.351,16.788 L13.338,18.201 L15.19,19.292 L13.39,20.373 L2.034,13.622 L13.405,6.787 L13.405,6.787 Z M1.925,15.127 L13.336,21.918 L13.351,22.962 L5.41,18.234 L5.395,19.65 L13.374,24.446 L13.391,25.522 L5.419,20.781 L5.406,22.196 L13.427,27.017 L13.472,27.043 L21.615,22.171 L21.615,20.903 L21.604,20.755 L21.604,16.994 L25.019,14.958 L25.019,24.978 L13.472,31.85 L1.925,24.979 L1.925,15.127 L1.925,15.127 Z" id="Shape" sketch:type="MSShapeGroup"></path>
        </g>
    </g>
</svg>