<?xml version="1.0" encoding="UTF-8" standalone="no"?>
<svg width="147px" height="41px" viewBox="0 0 147 41" version="1.1" xmlns="http://www.w3.org/2000/svg" xmlns:xlink="http://www.w3.org/1999/xlink" xmlns:sketch="http://www.bohemiancoding.com/sketch/ns">
    <!-- Generator: Sketch 3.3.1 (12005) - http://www.bohemiancoding.com/sketch -->
    <title>Slice 1</title>
    <desc>Created with Sketch.</desc>
    <defs></defs>
    <g id="Page-1" stroke="none" stroke-width="1" fill="none" fill-rule="evenodd" sketch:type="MSPage">
        <g id="logotype-white-desktop" sketch:type="MSLayerGroup">
            <g id="Group" transform="translate(71.000000, 17.000000)" fill="#D22856" sketch:type="MSShapeGroup">
                <path d="M0.874,1.661 C0.874,0.953 1.454,0.373 2.13,0.373 L9.31,0.373 C14.397,0.373 17.746,3.077 17.746,7.52 L17.746,7.584 C17.746,12.445 13.689,14.957 8.892,14.957 L3.418,14.957 L3.418,21.782 C3.418,22.49 2.838,23.07 2.13,23.07 C1.454,23.07 0.874,22.49 0.874,21.782 L0.874,1.661 L0.874,1.661 Z M8.988,12.64 C12.722,12.64 15.17,10.644 15.17,7.682 L15.17,7.618 C15.17,4.398 12.755,2.724 9.116,2.724 L3.418,2.724 L3.418,12.641 L8.988,12.641 L8.988,12.64 Z" id="Shape"></path>
                <path d="M22.603,1.5 C22.603,0.792 23.182,0.212 23.858,0.212 C24.567,0.212 25.146,0.792 25.146,1.5 L25.146,21.783 C25.146,22.491 24.567,23.071 23.858,23.071 C23.182,23.071 22.603,22.491 22.603,21.783 L22.603,1.5 L22.603,1.5 Z" id="Shape"></path>
                <path d="M31.744,1.532 C31.744,0.856 32.323,0.276 33,0.276 L33.354,0.276 C33.934,0.276 34.288,0.566 34.642,1.016 L48.326,18.466 L48.326,1.468 C48.326,0.792 48.873,0.212 49.582,0.212 C50.258,0.212 50.805,0.792 50.805,1.468 L50.805,21.816 C50.805,22.492 50.323,23.007 49.647,23.007 L49.518,23.007 C48.97,23.007 48.584,22.685 48.198,22.235 L34.224,4.366 L34.224,21.816 C34.224,22.492 33.677,23.072 32.969,23.072 C32.292,23.072 31.745,22.492 31.745,21.816 L31.745,1.532 L31.744,1.532 Z" id="Shape"></path>
                <path d="M57.174,1.5 C57.174,0.792 57.753,0.212 58.43,0.212 C59.138,0.212 59.717,0.792 59.717,1.5 L59.717,13.831 L72.564,0.663 C72.854,0.406 73.143,0.212 73.562,0.212 C74.238,0.212 74.786,0.824 74.786,1.468 C74.786,1.822 74.625,2.112 74.367,2.369 L66.383,10.289 L74.947,20.85 C75.172,21.14 75.301,21.397 75.301,21.784 C75.301,22.46 74.722,23.072 74.014,23.072 C73.531,23.072 73.208,22.814 72.984,22.492 L64.581,12.029 L59.719,16.89 L59.719,21.784 C59.719,22.492 59.14,23.072 58.432,23.072 C57.755,23.072 57.176,22.492 57.176,21.784 L57.176,1.5 L57.174,1.5 Z" id="Shape"></path>
            </g>
            <path d="M98.498,9.875 C96.496,9.875 94.874,8.252 94.874,6.251 C94.874,8.252 93.252,9.875 91.25,9.875 C93.252,9.875 94.874,11.498 94.874,13.499 C94.874,11.498 96.496,9.875 98.498,9.875 L98.498,9.875 Z" id="Shape" fill="#FFFFFF" sketch:type="MSShapeGroup"></path>
            <g id="Group" fill="#D22856" sketch:type="MSShapeGroup">
                <path d="M43.094,19.312 C43.34,19.312 43.582,19.326 43.823,19.345 C43.385,18.617 42.596,18.124 41.687,18.124 C40.81,18.124 40.073,17.556 39.803,16.77 C39.076,16.977 38.378,17.252 37.714,17.586 C37.776,17.603 37.837,17.624 37.903,17.624 C39.007,17.624 39.903,18.52 39.903,19.624 C39.903,19.72 39.888,19.812 39.875,19.904 C40.875,19.523 41.959,19.312 43.094,19.312 L43.094,19.312 Z" id="Shape"></path>
                <path d="M60.498,28.32 C60.498,28.266 60.489,28.215 60.482,28.162 C60.476,28.113 60.473,28.064 60.462,28.016 C60.46,28.007 60.461,27.999 60.459,27.991 L55.287,6.651 C54.926,4.303 52.694,0 46.688,0 C45.859,0 45.188,0.671 45.188,1.5 C45.188,2.329 45.859,3 46.688,3 C51.544,3 52.263,6.729 52.327,7.143 L57.094,26.844 L55.021,26.844 C54.576,23.287 52.569,20.216 49.717,18.321 C48.819,18.7 48.187,19.59 48.187,20.624 C48.187,20.711 48.172,20.795 48.161,20.879 C50.153,22.237 51.576,24.368 51.991,26.844 C52.073,27.333 52.126,27.832 52.126,28.344 C52.126,28.856 52.073,29.355 51.991,29.844 C51.275,34.116 47.57,37.375 43.095,37.375 C38.62,37.375 34.914,34.116 34.199,29.844 C34.117,29.355 34.064,28.856 34.064,28.344 C34.064,27.832 34.117,27.333 34.199,26.844 C34.346,25.965 34.626,25.133 35.007,24.36 C33.974,24.282 33.157,23.428 33.157,22.375 C33.157,22.186 33.08,22.017 32.964,21.885 C32.026,23.354 31.394,25.036 31.168,26.843 L29.46,26.843 C28.718,20.916 23.658,16.312 17.533,16.312 C11.408,16.312 6.346,20.917 5.604,26.844 L3.407,26.844 L8.146,7.291 L8.174,7.143 C8.197,6.973 8.802,3 13.812,3 C14.641,3 15.312,2.329 15.312,1.5 C15.312,0.671 14.641,0 13.812,0 C7.806,0 5.574,4.303 5.213,6.651 L0.042,27.99 C0.04,27.999 0.041,28.007 0.039,28.015 C0.028,28.064 0.025,28.113 0.019,28.161 C0.012,28.214 0.003,28.265 0.003,28.319 C0.002,28.328 0,28.336 0,28.344 C0,28.379 0.008,28.412 0.01,28.447 C0.014,28.505 0.017,28.562 0.027,28.618 C0.036,28.664 0.05,28.709 0.063,28.754 C0.077,28.802 0.089,28.85 0.107,28.896 C0.125,28.942 0.149,28.986 0.171,29.029 C0.192,29.071 0.213,29.114 0.238,29.153 C0.264,29.193 0.295,29.23 0.324,29.267 C0.354,29.306 0.384,29.345 0.417,29.38 C0.449,29.413 0.484,29.442 0.519,29.472 C0.558,29.505 0.595,29.539 0.636,29.569 C0.675,29.596 0.718,29.619 0.759,29.642 C0.801,29.666 0.842,29.693 0.887,29.712 C0.936,29.733 0.988,29.749 1.039,29.766 C1.075,29.778 1.107,29.794 1.144,29.803 C1.152,29.805 1.159,29.804 1.167,29.806 C1.274,29.829 1.384,29.845 1.498,29.845 L1.499,29.845 L5.602,29.845 C5.673,30.415 5.796,30.968 5.945,31.511 C5.962,31.449 5.983,31.39 5.983,31.323 C5.983,30.219 6.879,29.323 7.983,29.323 C8.191,29.323 8.388,29.364 8.577,29.423 C8.534,29.068 8.5,28.71 8.5,28.344 C8.5,27.832 8.553,27.333 8.635,26.844 C9.351,22.572 13.056,19.313 17.531,19.313 C22.006,19.313 25.712,22.572 26.427,26.844 C26.509,27.333 26.562,27.832 26.562,28.344 C26.562,28.856 26.509,29.355 26.427,29.844 C25.711,34.116 22.006,37.375 17.531,37.375 C15.483,37.375 13.6,36.687 12.087,35.536 C11.731,35.866 11.257,36.072 10.733,36.072 C10.32,36.072 9.984,36.408 9.984,36.82 C9.984,37.085 9.93,37.336 9.837,37.567 C11.923,39.314 14.602,40.375 17.531,40.375 C23.656,40.375 28.717,35.771 29.458,29.844 L31.166,29.844 C31.908,35.771 36.968,40.375 43.093,40.375 C49.218,40.375 54.279,35.771 55.02,29.844 L58.998,29.844 L59,29.844 C59.114,29.844 59.224,29.828 59.331,29.805 C59.339,29.803 59.346,29.804 59.354,29.802 C59.391,29.793 59.424,29.777 59.459,29.765 C59.511,29.748 59.563,29.733 59.611,29.711 C59.656,29.691 59.697,29.665 59.739,29.641 C59.781,29.618 59.823,29.595 59.862,29.568 C59.904,29.539 59.941,29.505 59.979,29.471 C60.013,29.442 60.049,29.412 60.081,29.379 C60.115,29.344 60.144,29.305 60.174,29.266 C60.203,29.229 60.234,29.192 60.26,29.152 C60.285,29.113 60.305,29.07 60.327,29.028 C60.35,28.985 60.373,28.941 60.391,28.895 C60.41,28.849 60.422,28.801 60.435,28.753 C60.448,28.708 60.462,28.663 60.471,28.617 C60.481,28.561 60.484,28.504 60.488,28.446 C60.49,28.412 60.498,28.379 60.498,28.343 C60.5,28.336 60.498,28.328 60.498,28.32 L60.498,28.32 Z" id="Shape"></path>
            </g>
            <path d="M50.686,16.125 C48.201,16.125 46.187,14.111 46.187,11.626 C46.187,14.111 44.173,16.125 41.688,16.125 C44.173,16.125 46.187,18.139 46.187,20.624 C46.187,18.139 48.2,16.125 50.686,16.125 L50.686,16.125 Z" id="Shape" fill="#FFFFFF" sketch:type="MSShapeGroup"></path>
            <path d="M37.904,19.626 C36.385,19.626 35.155,18.396 35.155,16.877 C35.155,18.396 33.925,19.626 32.406,19.626 C33.925,19.626 35.155,20.856 35.155,22.375 C35.155,20.856 36.386,19.626 37.904,19.626 L37.904,19.626 Z" id="Shape" fill="#FFFFFF" sketch:type="MSShapeGroup"></path>
            <path d="M10.734,34.072 C9.215,34.072 7.985,32.842 7.985,31.322 C7.985,32.842 6.755,34.072 5.236,34.072 C6.755,34.072 7.985,35.302 7.985,36.82 C7.985,35.303 9.215,34.072 10.734,34.072 L10.734,34.072 Z" id="Shape" fill="#FFFFFF" sketch:type="MSShapeGroup"></path>
        </g>
    </g>
</svg>