<?xml version="1.0" encoding="UTF-8" standalone="no"?>
<svg width="146.3px" height="40.375px" viewBox="0 0 146.3 40.375" version="1.1" xmlns="http://www.w3.org/2000/svg" xmlns:xlink="http://www.w3.org/1999/xlink" xmlns:sketch="http://www.bohemiancoding.com/sketch/ns">
    <!-- Generator: Sketch 3.3.1 (12005) - http://www.bohemiancoding.com/sketch -->
    <title>Slice 1</title>
    <desc>Created with Sketch.</desc>
    <defs></defs>
    <g id="Page-1" stroke="none" stroke-width="1" fill="none" fill-rule="evenodd" sketch:type="MSPage">
        <g id="logotype-blue-tablet" sketch:type="MSLayerGroup" fill="#D22856">
            <g id="Group" transform="translate(71.000000, 17.000000)" sketch:type="MSShapeGroup">
                <path d="M0.874,1.661 C0.874,0.953 1.454,0.373 2.13,0.373 L9.31,0.373 C14.397,0.373 17.746,3.077 17.746,7.52 L17.746,7.584 C17.746,12.445 13.689,14.957 8.892,14.957 L3.418,14.957 L3.418,21.782 C3.418,22.49 2.838,23.07 2.13,23.07 C1.454,23.07 0.874,22.49 0.874,21.782 L0.874,1.661 L0.874,1.661 Z M8.988,12.64 C12.722,12.64 15.17,10.644 15.17,7.682 L15.17,7.618 C15.17,4.398 12.755,2.724 9.116,2.724 L3.418,2.724 L3.418,12.641 L8.988,12.641 L8.988,12.64 Z" id="Shape"></path>
                <path d="M22.603,1.5 C22.603,0.792 23.182,0.212 23.858,0.212 C24.567,0.212 25.146,0.792 25.146,1.5 L25.146,21.783 C25.146,22.491 24.567,23.071 23.858,23.071 C23.182,23.071 22.603,22.491 22.603,21.783 L22.603,1.5 L22.603,1.5 Z" id="Shape"></path>
                <path d="M31.744,1.532 C31.744,0.856 32.323,0.276 33,0.276 L33.354,0.276 C33.934,0.276 34.288,0.566 34.642,1.016 L48.326,18.466 L48.326,1.468 C48.326,0.792 48.873,0.212 49.582,0.212 C50.258,0.212 50.805,0.792 50.805,1.468 L50.805,21.816 C50.805,22.492 50.323,23.007 49.647,23.007 L49.518,23.007 C48.97,23.007 48.584,22.685 48.198,22.235 L34.224,4.366 L34.224,21.816 C34.224,22.492 33.677,23.072 32.969,23.072 C32.292,23.072 31.745,22.492 31.745,21.816 L31.745,1.532 L31.744,1.532 Z" id="Shape"></path>
                <path d="M57.174,1.5 C57.174,0.792 57.753,0.212 58.43,0.212 C59.138,0.212 59.717,0.792 59.717,1.5 L59.717,13.831 L72.564,0.663 C72.854,0.406 73.143,0.212 73.562,0.212 C74.238,0.212 74.786,0.824 74.786,1.468 C74.786,1.822 74.625,2.112 74.367,2.369 L66.383,10.289 L74.947,20.85 C75.172,21.14 75.301,21.397 75.301,21.784 C75.301,22.46 74.722,23.072 74.014,23.072 C73.531,23.072 73.208,22.814 72.984,22.492 L64.581,12.029 L59.719,16.89 L59.719,21.784 C59.719,22.492 59.14,23.072 58.432,23.072 C57.755,23.072 57.176,22.492 57.176,21.784 L57.176,1.5 L57.174,1.5 Z" id="Shape"></path>
            </g>
            <path d="M60.498,28.32 C60.498,28.266 60.489,28.215 60.482,28.162 C60.476,28.113 60.473,28.064 60.462,28.016 C60.46,28.007 60.461,27.999 60.459,27.991 L55.287,6.651 C54.926,4.303 52.694,0 46.688,0 C45.859,0 45.188,0.671 45.188,1.5 C45.188,2.329 45.859,3 46.688,3 C51.544,3 52.263,6.729 52.327,7.143 L57.094,26.844 L55.021,26.844 C54.279,20.917 49.219,16.313 43.094,16.313 C36.969,16.313 31.908,20.917 31.167,26.844 L29.459,26.844 C28.717,20.917 23.657,16.313 17.532,16.313 C11.407,16.313 6.346,20.917 5.604,26.844 L3.407,26.844 L8.146,7.291 L8.174,7.143 C8.197,6.973 8.802,3 13.812,3 C14.641,3 15.312,2.329 15.312,1.5 C15.312,0.671 14.641,0 13.812,0 C7.806,0 5.574,4.303 5.213,6.651 L0.042,27.99 C0.04,27.999 0.041,28.007 0.039,28.015 C0.028,28.064 0.025,28.113 0.019,28.161 C0.012,28.214 0.003,28.265 0.003,28.319 C0.002,28.328 0,28.336 0,28.344 C0,28.379 0.008,28.412 0.01,28.447 C0.014,28.505 0.017,28.562 0.027,28.618 C0.036,28.664 0.05,28.709 0.063,28.754 C0.077,28.802 0.089,28.85 0.107,28.896 C0.125,28.942 0.149,28.986 0.171,29.029 C0.192,29.071 0.213,29.114 0.238,29.153 C0.264,29.193 0.295,29.23 0.324,29.267 C0.354,29.306 0.384,29.345 0.417,29.38 C0.449,29.413 0.484,29.442 0.519,29.472 C0.558,29.505 0.595,29.539 0.636,29.569 C0.675,29.596 0.718,29.619 0.759,29.642 C0.801,29.666 0.842,29.693 0.887,29.712 C0.936,29.733 0.988,29.749 1.039,29.766 C1.075,29.778 1.107,29.794 1.144,29.803 C1.152,29.805 1.159,29.804 1.167,29.806 C1.274,29.829 1.384,29.845 1.498,29.845 L1.499,29.845 L5.602,29.845 C6.344,35.772 11.404,40.376 17.529,40.376 C23.654,40.376 28.715,35.772 29.456,29.845 L31.164,29.845 C31.906,35.772 36.966,40.376 43.091,40.376 C49.216,40.376 54.277,35.772 55.018,29.845 L58.996,29.845 L59,29.845 C59.114,29.845 59.224,29.829 59.331,29.806 C59.339,29.804 59.346,29.805 59.354,29.803 C59.391,29.794 59.424,29.778 59.459,29.766 C59.511,29.749 59.563,29.734 59.611,29.712 C59.656,29.692 59.697,29.666 59.739,29.642 C59.781,29.619 59.823,29.596 59.862,29.569 C59.904,29.54 59.941,29.506 59.979,29.472 C60.013,29.443 60.049,29.413 60.081,29.38 C60.115,29.345 60.144,29.306 60.174,29.267 C60.203,29.23 60.234,29.193 60.26,29.153 C60.285,29.114 60.305,29.071 60.327,29.029 C60.35,28.986 60.373,28.942 60.391,28.896 C60.41,28.85 60.422,28.802 60.435,28.754 C60.448,28.709 60.462,28.664 60.471,28.618 C60.481,28.562 60.484,28.505 60.488,28.447 C60.49,28.413 60.498,28.38 60.498,28.344 C60.5,28.336 60.498,28.328 60.498,28.32 L60.498,28.32 Z M17.531,37.375 C13.056,37.375 9.35,34.116 8.635,29.844 C8.553,29.355 8.5,28.856 8.5,28.344 C8.5,27.832 8.553,27.333 8.635,26.844 C9.351,22.573 13.056,19.313 17.531,19.313 C22.006,19.313 25.712,22.573 26.427,26.844 C26.509,27.333 26.562,27.832 26.562,28.344 C26.562,28.856 26.509,29.355 26.427,29.844 C25.712,34.116 22.006,37.375 17.531,37.375 L17.531,37.375 Z M43.094,37.375 C38.619,37.375 34.913,34.116 34.198,29.844 C34.116,29.355 34.063,28.856 34.063,28.344 C34.063,27.832 34.116,27.333 34.198,26.844 C34.914,22.573 38.619,19.313 43.094,19.313 C47.569,19.313 51.275,22.573 51.99,26.844 C52.072,27.333 52.125,27.832 52.125,28.344 C52.125,28.856 52.072,29.355 51.99,29.844 C51.274,34.116 47.569,37.375 43.094,37.375 L43.094,37.375 Z" id="Shape" sketch:type="MSShapeGroup"></path>
        </g>
    </g>
</svg>